<mxfile host="app.diagrams.net" modified="2020-06-28T08:12:28.441Z" agent="5.0 (Macintosh; Intel Mac OS X 10_15_3) AppleWebKit/537.36 (KHTML, like Gecko) Chrome/83.0.4103.106 Safari/537.36" etag="1eRENzL4jnket2JBA135" version="13.3.0" type="github">
  <diagram id="L6NUzQcXIFyv5FrY1tt9" name="Page-1">
    <mxGraphModel dx="2893" dy="1130" grid="1" gridSize="10" guides="1" tooltips="1" connect="1" arrows="1" fold="1" page="1" pageScale="1" pageWidth="827" pageHeight="1169" math="0" shadow="0">
      <root>
        <mxCell id="0" />
        <mxCell id="1" parent="0" />
        <mxCell id="C2eBkXOqXmVI_Su9Z_Vg-26" value="" style="rounded=0;whiteSpace=wrap;html=1;fillColor=#d5e8d4;strokeColor=#82b366;fontSize=16;gradientColor=none;" parent="1" vertex="1">
          <mxGeometry x="210" y="120" width="620" height="610" as="geometry" />
        </mxCell>
        <mxCell id="DTYzZaFBWCEnk6iouCdz-2" value="" style="rounded=0;whiteSpace=wrap;html=1;fillColor=#f5f5f5;strokeColor=#666666;fontColor=#333333;fontSize=16;" vertex="1" parent="1">
          <mxGeometry x="450" y="180" width="350" height="520" as="geometry" />
        </mxCell>
        <mxCell id="C2eBkXOqXmVI_Su9Z_Vg-11" value="" style="rounded=0;whiteSpace=wrap;html=1;fillColor=#f5f5f5;strokeColor=#666666;fontColor=#333333;fontSize=16;" parent="1" vertex="1">
          <mxGeometry x="630" y="240" width="160" height="440" as="geometry" />
        </mxCell>
        <mxCell id="C2eBkXOqXmVI_Su9Z_Vg-28" style="edgeStyle=none;rounded=0;orthogonalLoop=1;jettySize=auto;html=1;fontSize=16;" parent="1" source="C2eBkXOqXmVI_Su9Z_Vg-1" target="C2eBkXOqXmVI_Su9Z_Vg-18" edge="1">
          <mxGeometry relative="1" as="geometry" />
        </mxCell>
        <mxCell id="C2eBkXOqXmVI_Su9Z_Vg-46" value="" style="edgeStyle=none;rounded=0;orthogonalLoop=1;jettySize=auto;html=1;fontSize=16;entryX=0.002;entryY=0.428;entryDx=0;entryDy=0;entryPerimeter=0;" parent="1" source="C2eBkXOqXmVI_Su9Z_Vg-1" target="C2eBkXOqXmVI_Su9Z_Vg-26" edge="1">
          <mxGeometry relative="1" as="geometry" />
        </mxCell>
        <mxCell id="C2eBkXOqXmVI_Su9Z_Vg-1" value="业务路由层" style="rounded=1;whiteSpace=wrap;html=1;fillColor=#dae8fc;strokeColor=#6c8ebf;fontSize=16;" parent="1" vertex="1">
          <mxGeometry x="40" y="350" width="120" height="60" as="geometry" />
        </mxCell>
        <mxCell id="C2eBkXOqXmVI_Su9Z_Vg-15" style="edgeStyle=orthogonalEdgeStyle;rounded=0;orthogonalLoop=1;jettySize=auto;html=1;entryX=0;entryY=0.5;entryDx=0;entryDy=0;fontSize=16;" parent="1" source="C2eBkXOqXmVI_Su9Z_Vg-2" target="C2eBkXOqXmVI_Su9Z_Vg-1" edge="1">
          <mxGeometry relative="1" as="geometry" />
        </mxCell>
        <mxCell id="C2eBkXOqXmVI_Su9Z_Vg-2" value="接口调用方" style="rounded=1;whiteSpace=wrap;html=1;fillColor=#dae8fc;strokeColor=#6c8ebf;fontSize=16;" parent="1" vertex="1">
          <mxGeometry x="-130" y="350" width="120" height="60" as="geometry" />
        </mxCell>
        <mxCell id="C2eBkXOqXmVI_Su9Z_Vg-3" value="业务配置" style="rounded=1;whiteSpace=wrap;html=1;fillColor=#dae8fc;strokeColor=#6c8ebf;fontSize=16;" parent="1" vertex="1">
          <mxGeometry x="937" y="254" width="120" height="60" as="geometry" />
        </mxCell>
        <mxCell id="C2eBkXOqXmVI_Su9Z_Vg-6" value="moment id索引&lt;br style=&quot;font-size: 16px;&quot;&gt;数据源" style="rounded=1;whiteSpace=wrap;html=1;fillColor=#dae8fc;strokeColor=#6c8ebf;fontSize=16;" parent="1" vertex="1">
          <mxGeometry x="937" y="350" width="120" height="60" as="geometry" />
        </mxCell>
        <mxCell id="C2eBkXOqXmVI_Su9Z_Vg-7" value="moment数据源" style="rounded=1;whiteSpace=wrap;html=1;fillColor=#dae8fc;strokeColor=#6c8ebf;fontSize=16;" parent="1" vertex="1">
          <mxGeometry x="937" y="440" width="120" height="60" as="geometry" />
        </mxCell>
        <mxCell id="C2eBkXOqXmVI_Su9Z_Vg-8" value="brand&lt;br style=&quot;font-size: 16px;&quot;&gt;moment数据" style="rounded=1;whiteSpace=wrap;html=1;fillColor=#dae8fc;strokeColor=#6c8ebf;fontSize=16;" parent="1" vertex="1">
          <mxGeometry x="650" y="356" width="120" height="60" as="geometry" />
        </mxCell>
        <mxCell id="C2eBkXOqXmVI_Su9Z_Vg-9" value="tags&lt;br style=&quot;font-size: 16px;&quot;&gt;moment数据" style="rounded=1;whiteSpace=wrap;html=1;fillColor=#dae8fc;strokeColor=#6c8ebf;fontSize=16;" parent="1" vertex="1">
          <mxGeometry x="650" y="435" width="120" height="60" as="geometry" />
        </mxCell>
        <mxCell id="C2eBkXOqXmVI_Su9Z_Vg-10" value="nearby&lt;br style=&quot;font-size: 16px;&quot;&gt;moment数据" style="rounded=1;whiteSpace=wrap;html=1;fillColor=#dae8fc;strokeColor=#6c8ebf;fontSize=16;" parent="1" vertex="1">
          <mxGeometry x="650" y="280" width="120" height="60" as="geometry" />
        </mxCell>
        <mxCell id="C2eBkXOqXmVI_Su9Z_Vg-12" value="数据整合层" style="text;html=1;align=center;verticalAlign=middle;resizable=0;points=[];autosize=1;fontSize=16;" parent="1" vertex="1">
          <mxGeometry x="660" y="250" width="100" height="20" as="geometry" />
        </mxCell>
        <mxCell id="C2eBkXOqXmVI_Su9Z_Vg-14" value="获取业务配置" style="text;html=1;align=center;verticalAlign=middle;resizable=0;points=[];autosize=1;fontSize=16;" parent="1" vertex="1">
          <mxGeometry x="827" y="254" width="110" height="20" as="geometry" />
        </mxCell>
        <mxCell id="C2eBkXOqXmVI_Su9Z_Vg-18" value="独立逻辑&lt;br style=&quot;font-size: 16px;&quot;&gt;兼容模式" style="rounded=1;whiteSpace=wrap;html=1;fillColor=#f5f5f5;strokeColor=#666666;fontColor=#333333;fontSize=16;" parent="1" vertex="1">
          <mxGeometry x="40" y="490" width="120" height="60" as="geometry" />
        </mxCell>
        <mxCell id="C2eBkXOqXmVI_Su9Z_Vg-24" value="other&lt;br style=&quot;font-size: 16px;&quot;&gt;moment数据" style="rounded=1;whiteSpace=wrap;html=1;fillColor=#dae8fc;strokeColor=#6c8ebf;fontSize=16;" parent="1" vertex="1">
          <mxGeometry x="650" y="510" width="120" height="60" as="geometry" />
        </mxCell>
        <mxCell id="C2eBkXOqXmVI_Su9Z_Vg-25" value="mix" style="rounded=1;whiteSpace=wrap;html=1;fillColor=#f8cecc;strokeColor=#b85450;fontSize=16;" parent="1" vertex="1">
          <mxGeometry x="650" y="590" width="120" height="60" as="geometry" />
        </mxCell>
        <mxCell id="C2eBkXOqXmVI_Su9Z_Vg-27" value="feed&lt;br style=&quot;font-size: 16px;&quot;&gt;数据引擎" style="text;html=1;align=center;verticalAlign=middle;resizable=0;points=[];autosize=1;fontSize=16;" parent="1" vertex="1">
          <mxGeometry x="300" y="160" width="80" height="40" as="geometry" />
        </mxCell>
        <mxCell id="C2eBkXOqXmVI_Su9Z_Vg-33" value="" style="shape=flexArrow;endArrow=classic;html=1;fillColor=#f8cecc;strokeColor=#b85450;fontSize=16;" parent="1" edge="1">
          <mxGeometry width="50" height="50" relative="1" as="geometry">
            <mxPoint x="855" y="384" as="sourcePoint" />
            <mxPoint x="915" y="384" as="targetPoint" />
          </mxGeometry>
        </mxCell>
        <mxCell id="C2eBkXOqXmVI_Su9Z_Vg-34" value="" style="shape=flexArrow;endArrow=classic;html=1;fillColor=#f8cecc;strokeColor=#b85450;fontSize=16;" parent="1" edge="1">
          <mxGeometry width="50" height="50" relative="1" as="geometry">
            <mxPoint x="855" y="469.5" as="sourcePoint" />
            <mxPoint x="915" y="469.5" as="targetPoint" />
          </mxGeometry>
        </mxCell>
        <mxCell id="C2eBkXOqXmVI_Su9Z_Vg-39" value="" style="shape=flexArrow;endArrow=classic;html=1;fillColor=#f8cecc;strokeColor=#b85450;fontSize=16;" parent="1" edge="1">
          <mxGeometry width="50" height="50" relative="1" as="geometry">
            <mxPoint x="855" y="294" as="sourcePoint" />
            <mxPoint x="915" y="294" as="targetPoint" />
          </mxGeometry>
        </mxCell>
        <mxCell id="C2eBkXOqXmVI_Su9Z_Vg-40" value="withdata" style="rounded=1;whiteSpace=wrap;html=1;fillColor=#dae8fc;strokeColor=#6c8ebf;fontSize=16;" parent="1" vertex="1">
          <mxGeometry x="480" y="464" width="120" height="60" as="geometry" />
        </mxCell>
        <mxCell id="C2eBkXOqXmVI_Su9Z_Vg-41" value="filter" style="rounded=1;whiteSpace=wrap;html=1;fillColor=#dae8fc;strokeColor=#6c8ebf;fontSize=16;" parent="1" vertex="1">
          <mxGeometry x="480" y="540" width="120" height="60" as="geometry" />
        </mxCell>
        <mxCell id="C2eBkXOqXmVI_Su9Z_Vg-42" value="request&lt;br style=&quot;font-size: 16px;&quot;&gt;parse" style="rounded=1;whiteSpace=wrap;html=1;fillColor=#dae8fc;strokeColor=#6c8ebf;fontSize=16;" parent="1" vertex="1">
          <mxGeometry x="480" y="230" width="120" height="60" as="geometry" />
        </mxCell>
        <mxCell id="C2eBkXOqXmVI_Su9Z_Vg-43" value="context" style="rounded=1;whiteSpace=wrap;html=1;fillColor=#dae8fc;strokeColor=#6c8ebf;fontSize=16;" parent="1" vertex="1">
          <mxGeometry x="480" y="306" width="120" height="60" as="geometry" />
        </mxCell>
        <mxCell id="C2eBkXOqXmVI_Su9Z_Vg-44" value="check&lt;br style=&quot;font-size: 16px;&quot;&gt;validate" style="rounded=1;whiteSpace=wrap;html=1;fillColor=#dae8fc;strokeColor=#6c8ebf;fontSize=16;" parent="1" vertex="1">
          <mxGeometry x="480" y="385" width="120" height="60" as="geometry" />
        </mxCell>
        <mxCell id="C2eBkXOqXmVI_Su9Z_Vg-45" value="async logic" style="rounded=1;whiteSpace=wrap;html=1;fillColor=#dae8fc;strokeColor=#6c8ebf;fontSize=16;" parent="1" vertex="1">
          <mxGeometry x="480" y="620" width="120" height="60" as="geometry" />
        </mxCell>
        <mxCell id="DTYzZaFBWCEnk6iouCdz-1" value="channel" style="rounded=1;whiteSpace=wrap;html=1;fillColor=#f8cecc;strokeColor=#b85450;fontSize=16;" vertex="1" parent="1">
          <mxGeometry x="240" y="356" width="120" height="60" as="geometry" />
        </mxCell>
        <mxCell id="DTYzZaFBWCEnk6iouCdz-3" value="config logic" style="text;html=1;align=center;verticalAlign=middle;resizable=0;points=[];autosize=1;fontSize=16;" vertex="1" parent="1">
          <mxGeometry x="575" y="200" width="100" height="20" as="geometry" />
        </mxCell>
        <mxCell id="DTYzZaFBWCEnk6iouCdz-4" value="channel" style="rounded=1;whiteSpace=wrap;html=1;fillColor=#f8cecc;strokeColor=#b85450;fontSize=16;" vertex="1" parent="1">
          <mxGeometry x="240" y="431" width="120" height="60" as="geometry" />
        </mxCell>
        <mxCell id="DTYzZaFBWCEnk6iouCdz-5" value="channel" style="rounded=1;whiteSpace=wrap;html=1;fillColor=#f8cecc;strokeColor=#b85450;fontSize=16;" vertex="1" parent="1">
          <mxGeometry x="240" y="545" width="120" height="60" as="geometry" />
        </mxCell>
        <mxCell id="DTYzZaFBWCEnk6iouCdz-6" value="。。。。。" style="text;html=1;align=center;verticalAlign=middle;resizable=0;points=[];autosize=1;fontSize=16;" vertex="1" parent="1">
          <mxGeometry x="250" y="511" width="100" height="20" as="geometry" />
        </mxCell>
        <mxCell id="DTYzZaFBWCEnk6iouCdz-7" value="" style="shape=flexArrow;endArrow=classic;html=1;fillColor=#f8cecc;strokeColor=#b85450;fontSize=16;" edge="1" parent="1">
          <mxGeometry width="50" height="50" relative="1" as="geometry">
            <mxPoint x="380" y="478.5" as="sourcePoint" />
            <mxPoint x="440" y="478.5" as="targetPoint" />
          </mxGeometry>
        </mxCell>
        <mxCell id="DTYzZaFBWCEnk6iouCdz-8" value="" style="shape=flexArrow;endArrow=classic;html=1;fillColor=#f8cecc;strokeColor=#b85450;fontSize=16;" edge="1" parent="1">
          <mxGeometry width="50" height="50" relative="1" as="geometry">
            <mxPoint x="380" y="564" as="sourcePoint" />
            <mxPoint x="440" y="564" as="targetPoint" />
          </mxGeometry>
        </mxCell>
        <mxCell id="DTYzZaFBWCEnk6iouCdz-9" value="" style="shape=flexArrow;endArrow=classic;html=1;fillColor=#f8cecc;strokeColor=#b85450;fontSize=16;" edge="1" parent="1">
          <mxGeometry width="50" height="50" relative="1" as="geometry">
            <mxPoint x="380" y="388.5" as="sourcePoint" />
            <mxPoint x="440" y="388.5" as="targetPoint" />
          </mxGeometry>
        </mxCell>
        <mxCell id="DTYzZaFBWCEnk6iouCdz-10" value="channel&lt;br&gt;路由" style="rounded=1;whiteSpace=wrap;html=1;fillColor=#dae8fc;strokeColor=#6c8ebf;fontSize=16;" vertex="1" parent="1">
          <mxGeometry x="240" y="220" width="120" height="60" as="geometry" />
        </mxCell>
        <mxCell id="DTYzZaFBWCEnk6iouCdz-12" value="" style="shape=flexArrow;endArrow=classic;html=1;fontSize=16;" edge="1" parent="1">
          <mxGeometry width="50" height="50" relative="1" as="geometry">
            <mxPoint x="300" y="290" as="sourcePoint" />
            <mxPoint x="300" y="345" as="targetPoint" />
          </mxGeometry>
        </mxCell>
      </root>
    </mxGraphModel>
  </diagram>
</mxfile>
